<?xml version="1.0" encoding="utf-8"?>
<!-- Generator: Adobe Illustrator 25.2.0, SVG Export Plug-In . SVG Version: 6.00 Build 0)  -->
<svg version="1.1" id="Layer_1" xmlns="http://www.w3.org/2000/svg" xmlns:xlink="http://www.w3.org/1999/xlink" x="0px" y="0px"
	 viewBox="0 0 167 73" style="enable-background:new 0 0 167 73;" xml:space="preserve">
<style type="text/css">
	.st0{fill-rule:evenodd;clip-rule:evenodd;fill:#283B83;}
	.st1{fill-rule:evenodd;clip-rule:evenodd;fill:#00ADD8;}
	.st2{fill-rule:evenodd;clip-rule:evenodd;fill:#F6D256;}
	.st3{fill-rule:evenodd;clip-rule:evenodd;fill:#FFFFFF;}
</style>
<g id="ZHIC---Homepage" transform="translate(-130.000000, -6.000000)">
	<g id="Group-255" transform="translate(130.000000, 6.000000)">
		<path id="Fill-139" class="st0" d="M145.2,0.5c0,0,32.5,43,7.1,71.1C152.3,71.6,189.2,47.3,145.2,0.5"/>
		<path id="Fill-140" class="st1" d="M148.4,34.4c0,0,9.3,13.1,7.9,21.8c-1.3,8.7-7.2,5.5-7.2,5.5s4.4,4.8,1.3,11
			c0,0,9.8-4.1,9.4-15.7C159.4,45.4,151.1,37.2,148.4,34.4"/>
		<polygon id="Fill-141" class="st2" points="143.8,13.7 140.1,9.8 139.4,10.7 143.5,13.8 		"/>
		<polygon id="Fill-142" class="st2" points="135,15 134.2,16.2 139.9,19.1 140.1,18.8 		"/>
		<polygon id="Fill-143" class="st3" points="129,63.3 130.5,65.5 139.1,57.5 138.7,56.9 		"/>
		<path id="Fill-144" class="st2" d="M150.5,12.5c0,0-22.2,32.8-2.3,48.7C148.2,61.2,120.9,46.4,150.5,12.5"/>
		<polygon id="Fill-145" class="st2" points="131.9,21.8 131.3,23.2 138.1,25.2 138.3,24.8 		"/>
		<polygon id="Fill-146" class="st2" points="127.9,30.2 127.5,31.9 135.2,32.8 135.3,32.3 		"/>
		<polygon id="Fill-147" class="st2" points="125.4,40.9 125.4,43 134.4,41.6 134.4,41 		"/>
		<polygon id="Fill-148" class="st3" points="126.7,52.9 127.1,55 136.3,50.4 136.2,49.8 		"/>
		<path id="Fill-149" class="st2" d="M150.1,29.1c0,0-5.4,12.3,0.4,12.3C156.3,41.4,150.1,29.1,150.1,29.1"/>
		<path id="Fill-150" class="st3" d="M2.2,50.8c0,0.3-0.1,0.5-0.2,0.7c-0.2,0.2-0.4,0.3-0.6,0.3c-0.2,0-0.4-0.1-0.6-0.3
			c-0.2-0.2-0.2-0.4-0.2-0.7c0-0.3,0.1-0.5,0.2-0.7C1,50,1.2,49.9,1.4,49.9c0.2,0,0.4,0.1,0.6,0.3C2.1,50.3,2.2,50.5,2.2,50.8
			L2.2,50.8z M4.2,52.4c-1.6,0-2.5,0-2.8,0c-0.2,0-0.3,0.1-0.5,0.2c-0.2,0.2-0.3,0.4-0.3,0.7v5.1c0,0.6,0.2,0.9,0.7,0.9h2.8
			c0.3,0,0.6,0,0.6-0.1c0.1-0.1,0.1-0.2,0.2-0.4c0.1,0.3,0.4,0.5,0.9,0.5c0.2,0,0.5,0,0.9,0l0-1.9H6.1c-0.3,0-0.4-0.1-0.4-0.3
			c0-0.1,0-0.4,0-1v-6c-0.9,0.4-1.3,0.8-1.4,1.2V52.4z M2,55.1c0-0.4,0-0.7,0.1-0.7c0.1-0.1,0.3-0.1,0.7-0.1h0.6
			c0.4,0,0.7,0,0.7,0.1c0.1,0.1,0.1,0.3,0.1,0.8v1.5c0,0.5,0,0.7,0,0.8c0,0-0.2,0.1-0.5,0.1l-1.3,0c-0.2,0-0.3,0-0.3-0.1
			c0-0.1,0-0.3,0-0.7V55.1z M3.7,50.8c0,0.3-0.1,0.5-0.2,0.7c-0.2,0.2-0.4,0.3-0.6,0.3c-0.2,0-0.4-0.1-0.6-0.3
			C2.1,51.3,2,51.1,2,50.8c0-0.3,0.1-0.5,0.2-0.7c0.2-0.2,0.4-0.3,0.6-0.3c0.2,0,0.4,0.1,0.6,0.3C3.6,50.3,3.7,50.5,3.7,50.8
			L3.7,50.8z"/>
		<polygon id="Fill-151" class="st3" points="6.3,59.3 7.7,59.3 7.7,57.4 6.3,57.4 		"/>
		<polygon id="Fill-152" class="st3" points="7.4,59.3 8.8,59.3 8.8,57.4 7.4,57.4 		"/>
		<path id="Fill-153" class="st3" d="M12.2,52.5v4.7c0,0.1,0,0.2,0.1,0.2h0.9l0,1.9H8.5l0-1.9h2.1c0.2,0,0.3-0.1,0.3-0.2V54
			c0-0.2,0.1-0.4,0.2-0.7c0.2-0.3,0.4-0.5,0.6-0.7C11.8,52.5,12,52.4,12.2,52.5C12.2,52.4,12.2,52.5,12.2,52.5 M10.7,60.9
			c0,0.3-0.1,0.5-0.3,0.7c-0.2,0.2-0.4,0.3-0.6,0.3c-0.2,0-0.4-0.1-0.6-0.3C9.1,61.4,9,61.2,9,60.9c0-0.3,0.1-0.5,0.2-0.7
			C9.5,60.1,9.7,60,9.9,60c0.2,0,0.4,0.1,0.6,0.3C10.6,60.4,10.7,60.7,10.7,60.9 M12.4,60.9c0,0.3-0.1,0.5-0.2,0.7
			c-0.2,0.2-0.4,0.3-0.6,0.3c-0.2,0-0.4-0.1-0.6-0.3c-0.2-0.2-0.2-0.4-0.2-0.7c0-0.3,0.1-0.5,0.2-0.7c0.2-0.2,0.4-0.3,0.6-0.3
			c0.2,0,0.4,0.1,0.6,0.3C12.3,60.4,12.4,60.7,12.4,60.9"/>
		<path id="Fill-154" class="st3" d="M12.9,57.4h0.8c0.1,0,0.2-0.1,0.2-0.4c0-2,0-3.1,0-3.2c0-1,0.3-1.5,1.1-1.4h3.2
			c0.7,0,1,0.4,1,1.4v4.6c0,0.3,0,0.5-0.1,0.7c-0.1,0.2-0.4,0.3-0.9,0.3h-5.3L12.9,57.4z M17.1,57.5c0.4,0,0.6-0.2,0.6-0.6
			c0-1.1,0-1.9,0-2.3c0-0.3-0.1-0.5-0.4-0.5c0,0-0.1,0-0.1,0H16c-0.3,0-0.5,0.1-0.5,0.4c0,0,0,0.1,0,0.1v1.2c0,1.1,0,1.6-0.2,1.7
			H17.1z"/>
		<path id="Fill-155" class="st3" d="M26,59.3h-2.6h-2.7c-0.7-0.1-1-0.7-0.9-1.9l1.6,0h0h0h0.6c0.1,0,0.2-0.2,0.2-0.6
			c0-0.3,0-0.5,0-0.7c-0.3-0.7-0.7-1.2-0.9-1.7c-0.5-1-1-1.8-1.4-2.5c-0.2-0.4-0.3-0.8-0.3-1.3c0-0.5,0.1-1,0.3-1.4
			c0.1-0.4,0.3-0.6,0.4-0.6c0,0,0,0,0,0c0,0.2,0.2,0.8,0.5,1.6c0.3,0.9,0.6,1.5,0.9,1.8c0.4,0.6,1,1.8,1.8,3.5v-5.9
			c0-0.3,0.2-0.7,0.6-1c0.4-0.3,0.6-0.5,0.8-0.5l0,8.5c0,0.5,0.2,0.7,0.5,0.7H26V59.3z"/>
		<path id="Fill-156" class="st3" d="M25.5,57.4l1,0c0.1,0,0.2-0.1,0.2-0.3v-3c0.3-0.9,0.8-1.3,1.4-1.3v4.3c0,0.2,0.1,0.2,0.2,0.2
			h1.3c0.1,0,0.2-0.1,0.2-0.3v-3.4c0.2-0.6,0.7-1,1.5-1.1v4.6c0,0.1,0.1,0.2,0.2,0.2h0.8c0.1,0,0.2-0.1,0.2-0.2v-3.7
			c0.1-0.6,0.6-1.1,1.4-1.3c0,0,0.1,0,0.1,0.1v4.8c0,1.6-0.2,2.3-0.6,2.2h-7.7L25.5,57.4z"/>
		<path id="Fill-157" class="st3" d="M35.4,60.8C35.4,60.7,35.4,60.7,35.4,60.8l-0.8-0.1v-0.4c0-0.3,0.2-0.5,0.5-0.5
			c0.2,0,0.4,0,0.4,0c0,0,0.1-0.1,0.1-0.1c0,0,0,0.1,0,0.1c0,0.3-0.1,0.4-0.2,0.4h-0.4c-0.1,0-0.2,0.1-0.2,0.2h0.4
			c0.1,0,0.2,0,0.2,0.1c0.1,0.1,0.1,0.1,0.1,0.2v0.2v0.2c0,0.1-0.1,0.2-0.1,0.2c-0.5,0-0.8,0-0.9,0c-0.1,0-0.1-0.2-0.1-0.4
			L35.4,60.8C35.4,60.9,35.4,60.9,35.4,60.8 M36.3,57.4h0.6h0.1c0.1,0,0.2-0.2,0.2-0.5c0-0.3,0-0.6,0-0.7c-0.3-0.7-0.7-1.2-0.9-1.8
			c-0.5-1-1-1.8-1.4-2.5c-0.2-0.4-0.3-0.8-0.3-1.3c0-0.5,0.1-1,0.3-1.4c0.1-0.4,0.3-0.6,0.3-0.6c0,0,0,0,0,0c0,0.2,0.2,0.8,0.5,1.6
			c0.3,0.9,0.6,1.5,0.9,1.9c0.4,0.6,1,1.8,1.8,3.6v-6c0-0.3,0.2-0.7,0.6-1.1c0.4-0.3,0.7-0.5,0.8-0.5v9.2c0,0.7-0.2,1.3-0.7,1.6
			c-0.3,0.3-0.6,0.4-0.9,0.4h-2.7c-0.7-0.1-1-0.7-0.9-1.9C34.7,57.4,35.2,57.4,36.3,57.4"/>
		<path id="Fill-158" class="st3" d="M42.4,47v10.3c0,0.8-0.1,1.4-0.3,1.9c-0.2,0.6-0.6,1-1,1h-0.2V48.4c0-0.3,0.2-0.7,0.6-1
			C41.8,47.1,42.1,46.9,42.4,47C42.4,46.9,42.4,46.9,42.4,47"/>
		<path id="Fill-159" class="st3" d="M46.8,50.8c0,0.3-0.1,0.5-0.2,0.7c-0.2,0.2-0.4,0.3-0.6,0.3c-0.2,0-0.4-0.1-0.6-0.3
			c-0.2-0.2-0.2-0.4-0.2-0.7c0-0.3,0.1-0.5,0.2-0.7c0.2-0.2,0.4-0.3,0.6-0.3c0.2,0,0.4,0.1,0.6,0.3C46.7,50.3,46.8,50.5,46.8,50.8
			L46.8,50.8z M48.8,52.4c-1.6,0-2.5,0-2.8,0c-0.2,0-0.3,0.1-0.5,0.2c-0.2,0.2-0.3,0.4-0.3,0.7v5.1c0,0.6,0.2,0.9,0.7,0.9h2.8
			c0.3,0,0.6,0,0.6-0.1c0.1-0.1,0.1-0.2,0.2-0.4c0.1,0.3,0.4,0.5,0.9,0.5c0.2,0,0.5,0,0.9,0l0-1.9h-0.6c-0.3,0-0.4-0.1-0.4-0.3
			c0-0.1,0-0.4,0-1v-6c-0.9,0.4-1.3,0.8-1.4,1.2V52.4z M46.6,55.1c0-0.4,0-0.7,0.1-0.7c0.1-0.1,0.3-0.1,0.7-0.1H48
			c0.4,0,0.7,0,0.7,0.1c0,0.1,0.1,0.3,0.1,0.8v1.5c0,0.5,0,0.7,0,0.8c0,0-0.2,0.1-0.5,0.1l-1.3,0c-0.2,0-0.3,0-0.3-0.1
			c0-0.1,0-0.3,0-0.7V55.1z M48.3,50.8c0,0.3-0.1,0.5-0.2,0.7c-0.2,0.2-0.4,0.3-0.6,0.3s-0.4-0.1-0.6-0.3c-0.2-0.2-0.2-0.4-0.2-0.7
			c0-0.3,0.1-0.5,0.2-0.7c0.2-0.2,0.4-0.3,0.6-0.3s0.4,0.1,0.6,0.3C48.2,50.3,48.3,50.5,48.3,50.8L48.3,50.8z"/>
		<polygon id="Fill-160" class="st3" points="50.9,59.3 52.3,59.3 52.3,57.4 50.9,57.4 		"/>
		<polygon id="Fill-161" class="st3" points="52,59.3 53.4,59.3 53.4,57.4 52,57.4 		"/>
		<polygon id="Fill-162" class="st3" points="53.1,59.3 54.5,59.3 54.5,57.4 53.1,57.4 		"/>
		<polygon id="Fill-163" class="st3" points="54.3,59.3 55.6,59.3 55.6,57.4 54.3,57.4 		"/>
		<path id="Fill-164" class="st3" d="M55.1,57.4H57c-0.2-0.1-0.2-0.3-0.2-0.6v-3.5c0-0.3,0.1-0.5,0.3-0.7c0.2-0.2,0.4-0.3,0.5-0.3
			h3.2c0.2,0,0.4,0.1,0.6,0.4c0.2,0.2,0.3,0.5,0.3,0.6v4.9c0,0.6-0.2,1-0.6,1h-6L55.1,57.4z M58.4,54.1c-0.2,0-0.2,0.1-0.2,0.3v2.3
			c0,0.2,0,0.4,0.2,0.5c0.1,0.1,0.2,0.2,0.3,0.2h1.3c0.2,0,0.2-0.1,0.3-0.3v-2.5c0-0.3-0.1-0.5-0.3-0.5H58.4z M59.7,50.1
			c-0.1-0.2-0.3-0.3-0.5-0.3c-0.2,0-0.4,0.1-0.5,0.3c-0.1,0.2-0.2,0.4-0.2,0.6c0,0.2,0.1,0.5,0.2,0.6c0.1,0.2,0.3,0.3,0.5,0.3
			c0.2,0,0.4-0.1,0.5-0.3c0.1-0.2,0.2-0.4,0.2-0.6C59.9,50.4,59.8,50.2,59.7,50.1L59.7,50.1z"/>
		<path id="Fill-165" class="st3" d="M62.9,47.3c0.4-0.3,0.6-0.4,0.8-0.4c0.1,0,0.1,0,0.1,0.1V57c0,0.2,0.1,0.3,0.3,0.3h0.2l0,1.9
			h-1c-0.3,0-0.5-0.1-0.7-0.3c-0.2-0.2-0.3-0.5-0.3-0.7V48.2C62.3,47.9,62.5,47.7,62.9,47.3"/>
		<path id="Fill-166" class="st3" d="M64.1,57.4l1.5,0c-0.2-0.2-0.3-0.4-0.2-0.6v-3.5c0-0.2,0.1-0.4,0.4-0.6
			c0.2-0.3,0.5-0.4,0.7-0.4h3.8c0.2,0,0.5,0.1,0.7,0.4c0.2,0.2,0.3,0.5,0.3,0.6v4l0.7,0v1.9h-7.8L64.1,57.4z M67.7,50.1
			c-0.2-0.2-0.4-0.3-0.6-0.3c-0.2,0-0.4,0.1-0.6,0.3c-0.2,0.2-0.3,0.4-0.3,0.6c0,0.2,0.1,0.5,0.3,0.6c0.2,0.2,0.4,0.3,0.6,0.3
			c0.2,0,0.5-0.1,0.6-0.3c0.2-0.2,0.3-0.4,0.3-0.6C68,50.4,67.9,50.2,67.7,50.1L67.7,50.1z M67.3,54.1c-0.2,0-0.3,0.1-0.3,0.3v2.3
			c0,0.2,0.1,0.4,0.2,0.5c0.1,0.1,0.3,0.2,0.3,0.2h1.6c0.2,0,0.3-0.1,0.3-0.3v-2.5c0-0.3-0.1-0.5-0.4-0.5H67.3z M69.5,50.1
			c-0.2-0.2-0.4-0.3-0.6-0.3s-0.5,0.1-0.6,0.3c-0.2,0.2-0.3,0.4-0.3,0.6c0,0.2,0.1,0.5,0.3,0.6c0.2,0.2,0.4,0.3,0.6,0.3
			s0.5-0.1,0.6-0.3c0.2-0.2,0.3-0.4,0.3-0.6C69.8,50.4,69.7,50.2,69.5,50.1L69.5,50.1z"/>
		<path id="Fill-167" class="st3" d="M73.2,50.9c0,0.3-0.1,0.5-0.2,0.7c-0.2,0.2-0.4,0.3-0.6,0.3c-0.2,0-0.4-0.1-0.6-0.3
			c-0.2-0.2-0.2-0.4-0.2-0.7c0-0.3,0.1-0.5,0.2-0.7c0.2-0.2,0.4-0.3,0.6-0.3c0.2,0,0.4,0.1,0.6,0.3C73.2,50.4,73.2,50.6,73.2,50.9
			 M74.7,52.4v4.7c0,0.2,0.1,0.2,0.3,0.2h0.8l0,1.9h-4.2l0-1.9h1.6c0.1,0,0.2-0.1,0.2-0.2v-3.3c0-0.2,0.1-0.4,0.2-0.7
			c0.2-0.3,0.4-0.5,0.6-0.7C74.4,52.4,74.6,52.4,74.7,52.4C74.7,52.4,74.7,52.4,74.7,52.4 M74.1,49.2c0,0.3-0.1,0.5-0.2,0.7
			c-0.2,0.2-0.4,0.3-0.6,0.3c-0.2,0-0.4-0.1-0.6-0.3c-0.2-0.2-0.2-0.4-0.2-0.7c0-0.3,0.1-0.5,0.2-0.7c0.2-0.2,0.4-0.3,0.6-0.3
			c0.2,0,0.4,0.1,0.6,0.3C74,48.7,74.1,48.9,74.1,49.2 M74.9,50.9c0,0.3-0.1,0.5-0.2,0.7c-0.2,0.2-0.4,0.3-0.6,0.3
			c-0.2,0-0.4-0.1-0.6-0.3c-0.2-0.2-0.2-0.4-0.2-0.7c0-0.3,0.1-0.5,0.2-0.7c0.2-0.2,0.4-0.3,0.6-0.3c0.2,0,0.4,0.1,0.6,0.3
			C74.8,50.4,74.9,50.6,74.9,50.9"/>
		<path id="Fill-168" class="st3" d="M77,47.3c0.4-0.3,0.6-0.4,0.8-0.4c0.1,0,0.1,0,0.1,0.1V57c0,0.2,0.1,0.3,0.3,0.3h0.6l0,1.9
			h-3.5l0.1-1.9H76c0.3,0,0.4-0.2,0.4-0.6v-8.6C76.4,47.9,76.6,47.7,77,47.3"/>
		<path id="Fill-169" class="st3" d="M80.1,47.3c0.4-0.3,0.6-0.4,0.8-0.4c0.1,0,0.1,0,0.1,0.1v11.6c0,0.5-0.2,0.8-0.4,0.8l-2.3,0
			l0.2-1.9h0.9c0.1-0.1,0.2-0.2,0.2-0.5v-8.7C79.5,47.9,79.7,47.7,80.1,47.3"/>
		<path id="Fill-170" class="st3" d="M83.9,51.7C83.9,51.7,83.9,51.7,83.9,51.7L83.9,51.7c0.1,0,0.2-0.1,0.2-0.1
			c0.1,0,0.1,0,0.1,0.1c0.3,0.3,0.5,0.5,0.6,0.5c0.1,0,0.3,0.1,0.7,0.1c-0.6,0-0.3,0,1,0c0.4,0,0.8,0.1,1.3,0.3
			c0.6,0.2,1.1,0.6,1.4,1c0.5,0.7,0.9,1.4,0.9,1.9v1.9H91v1.9h-6.9c-0.3,0-0.5-0.3-0.6-0.9c0-0.2,0-0.3,0.1-0.5
			c0.1-0.3,0.3-0.5,0.5-0.6h4.7v-1.2c0-0.4-0.2-0.8-0.6-1.2c-0.5-0.5-1-0.7-1.7-0.7h-1.7c-0.2,0-0.4-0.1-0.6-0.3
			c-0.3-0.2-0.4-0.5-0.4-0.8v-1C83.8,52,83.8,51.9,83.9,51.7C83.9,51.7,83.9,51.7,83.9,51.7"/>
		<polygon id="Fill-171" class="st3" points="90.7,59.3 92.1,59.3 92.1,57.4 90.7,57.4 		"/>
		<polygon id="Fill-172" class="st3" points="91.8,59.3 93.2,59.3 93.2,57.4 91.8,57.4 		"/>
		<polygon id="Fill-173" class="st3" points="92.9,59.3 94.3,59.3 94.3,57.4 92.9,57.4 		"/>
		<polygon id="Fill-174" class="st3" points="94,59.3 95.4,59.3 95.4,57.4 94,57.4 		"/>
		<path id="Fill-175" class="st3" d="M98.5,52.4v5.9c0,0.2-0.1,0.4-0.3,0.6c-0.2,0.3-0.5,0.4-0.7,0.4h-2.3l0-1.9h1.6
			c0.1,0,0.2-0.1,0.2-0.3v-3.4c0-0.2,0.2-0.4,0.5-0.8C97.9,52.6,98.2,52.4,98.5,52.4 M97.2,60.8c0,0.3-0.1,0.5-0.2,0.7
			c-0.2,0.2-0.4,0.3-0.6,0.3c-0.2,0-0.4-0.1-0.6-0.3c-0.2-0.2-0.2-0.4-0.2-0.7c0-0.3,0.1-0.5,0.2-0.7s0.4-0.3,0.6-0.3
			c0.2,0,0.4,0.1,0.6,0.3S97.2,60.6,97.2,60.8 M98.8,60.8c0,0.3-0.1,0.5-0.2,0.7c-0.2,0.2-0.4,0.3-0.6,0.3c-0.2,0-0.4-0.1-0.6-0.3
			c-0.2-0.2-0.2-0.4-0.2-0.7c0-0.3,0.1-0.5,0.2-0.7c0.2-0.2,0.4-0.3,0.6-0.3c0.2,0,0.4,0.1,0.6,0.3C98.7,60.3,98.8,60.6,98.8,60.8"
			/>
		<path id="Fill-176" class="st3" d="M100.9,47v10.3c0,0.8-0.1,1.4-0.3,1.9c-0.2,0.6-0.6,1-1,1h-0.2V48.4c0-0.3,0.2-0.7,0.6-1
			C100.3,47.1,100.6,46.9,100.9,47C100.8,46.9,100.9,46.9,100.9,47"/>
		<path id="Fill-177" class="st3" d="M104,59.3c0,0.5-0.1,0.9-0.3,1.2c-0.1,0.2-0.3,0.5-0.7,0.9c-0.5,0.5-1.1,0.7-1.7,0.8l-0.1-0.2
			c0.4-0.2,0.7-0.6,0.9-1c0.2-0.4,0.3-0.8,0.3-1.1v-5.7c0-0.1,0-0.2,0.1-0.3c0.1-0.1,0.3-0.3,0.6-0.6c0.3-0.3,0.6-0.5,0.8-0.5
			c0.1,0,0.1,0,0.1,0.1C104,56.2,104,58.4,104,59.3 M102.3,51.9c0.2,0.2,0.4,0.3,0.7,0.3c0.3,0,0.5-0.1,0.7-0.3
			c0.2-0.2,0.3-0.5,0.3-0.7c0-0.3-0.1-0.5-0.3-0.7c-0.2-0.2-0.4-0.3-0.7-0.3c-0.3,0-0.5,0.1-0.7,0.3c-0.2,0.2-0.3,0.5-0.3,0.7
			C102,51.4,102.1,51.7,102.3,51.9"/>
		<path id="Fill-178" class="st3" d="M108.7,59.3c0,0.5-0.1,0.9-0.3,1.2c-0.1,0.2-0.3,0.5-0.7,0.9c-0.5,0.5-1.1,0.7-1.7,0.8
			l-0.1-0.2c0.4-0.2,0.7-0.6,0.9-1c0.2-0.4,0.3-0.8,0.3-1.1v-5.7c0-0.1,0-0.2,0.1-0.3c0.1-0.1,0.3-0.3,0.6-0.6
			c0.3-0.3,0.6-0.5,0.8-0.5c0.1,0,0.1,0,0.1,0.1C108.8,56.2,108.8,58.4,108.7,59.3"/>
		<path id="Fill-179" class="st3" d="M111.1,47v10.3c0,0.8-0.1,1.4-0.3,1.9c-0.2,0.6-0.6,1-1,1h-0.2V48.4c0-0.3,0.2-0.7,0.6-1
			C110.5,47.1,110.8,46.9,111.1,47C111,46.9,111.1,46.9,111.1,47"/>
		<path id="Fill-180" class="st3" d="M111.9,51.7C111.9,51.7,111.9,51.7,111.9,51.7L111.9,51.7c0.1,0,0.2-0.1,0.2-0.1
			c0,0,0.1,0,0.1,0.1c0.3,0.3,0.5,0.5,0.6,0.5c0.1,0,0.3,0.1,0.7,0.1c-0.6,0-0.3,0,1,0c0.4,0,0.8,0.1,1.3,0.3c0.6,0.2,1.1,0.6,1.4,1
			c0.5,0.7,0.9,1.4,0.9,1.9c0.2,2.6,0,3.8-0.5,3.8h-5.6c-0.3,0-0.5-0.3-0.6-0.9c0-0.2,0-0.3,0.1-0.5c0.1-0.3,0.3-0.5,0.5-0.6h4.7
			v-1.2c0-0.4-0.2-0.8-0.6-1.2c-0.5-0.5-1-0.7-1.7-0.7h-1.7c-0.2,0-0.4-0.1-0.6-0.3c-0.3-0.2-0.4-0.5-0.4-0.8v-1
			C111.8,52,111.9,51.9,111.9,51.7C112,51.7,111.9,51.7,111.9,51.7"/>
		<polygon id="Fill-181" class="st3" points="4.8,71 0.5,71 0.5,70.1 3.4,66.5 0.6,66.5 0.6,65.6 4.8,65.6 4.8,66.5 1.9,70.1 
			4.8,70.1 		"/>
		<path id="Fill-182" class="st3" d="M8.9,70.2c0,0.2,0,0.3,0.1,0.4c0,0.1,0.1,0.2,0.2,0.2V71H8c0-0.1-0.1-0.3-0.1-0.5
			c-0.3,0.4-0.8,0.6-1.3,0.6c-0.4,0-0.7-0.1-0.9-0.3c-0.2-0.2-0.3-0.5-0.3-0.9c0-0.3,0.1-0.6,0.3-0.9c0.2-0.2,0.5-0.4,0.9-0.4l1-0.1
			c0.1,0,0.2-0.1,0.3-0.1c0.1-0.1,0.1-0.1,0.1-0.2c0-0.2-0.1-0.3-0.2-0.4c-0.1-0.1-0.3-0.1-0.5-0.1c-0.2,0-0.4,0-0.5,0.1
			c-0.1,0.1-0.2,0.2-0.2,0.4h-1c0.1-0.5,0.2-0.8,0.5-1.1c0.3-0.2,0.7-0.3,1.4-0.3c0.5,0,0.9,0.1,1.2,0.3c0.3,0.2,0.4,0.5,0.4,0.9
			V70.2z M7.8,69.1c-0.1,0.1-0.4,0.2-0.8,0.2c-0.3,0-0.5,0.1-0.6,0.2c-0.1,0.1-0.1,0.2-0.1,0.4c0,0.2,0.1,0.3,0.2,0.4
			c0.1,0.1,0.2,0.1,0.4,0.1c0.3,0,0.5-0.1,0.7-0.2c0.2-0.2,0.3-0.3,0.3-0.6V69.1z"/>
		<path id="Fill-183" class="st3" d="M11.9,71c-0.2,0.6-0.4,1-0.5,1.1c-0.1,0.2-0.2,0.3-0.4,0.4c-0.1,0.1-0.4,0.1-0.7,0.1
			c-0.2,0-0.3,0-0.5,0v-0.8c0.1,0,0.2,0,0.3,0c0.2,0,0.3,0,0.4-0.1c0.1-0.1,0.2-0.2,0.2-0.5L9.2,67h1.2l0.9,3h0l0.8-3h1.1L11.9,71z"
			/>
		<path id="Fill-184" class="st3" d="M17.3,69.8c-0.1,0.4-0.3,0.7-0.7,1c-0.3,0.2-0.7,0.3-1.1,0.3c-0.7,0-1.2-0.2-1.5-0.6
			c-0.4-0.4-0.5-0.9-0.5-1.5c0-0.6,0.2-1.2,0.5-1.6c0.3-0.4,0.8-0.6,1.5-0.6c0.6,0,1.1,0.2,1.4,0.6c0.3,0.4,0.5,0.9,0.5,1.7v0.2
			h-2.8c0,0.3,0.1,0.6,0.3,0.7c0.2,0.2,0.4,0.2,0.7,0.2c0.2,0,0.3,0,0.4-0.1c0.1-0.1,0.2-0.2,0.2-0.3H17.3z M16.2,68.6
			c0-0.3-0.1-0.5-0.3-0.6c-0.1-0.2-0.3-0.2-0.6-0.2c-0.5,0-0.8,0.3-0.9,0.8H16.2z"/>
		<path id="Fill-185" class="st3" d="M21.8,71h-1v-0.5h0c-0.2,0.4-0.6,0.6-1.2,0.6c-0.5,0-0.9-0.2-1.2-0.6c-0.3-0.4-0.4-0.9-0.4-1.6
			c0-0.6,0.2-1.1,0.5-1.5c0.3-0.4,0.7-0.6,1.2-0.6c0.5,0,0.9,0.2,1.2,0.6h0v-1.9h1.1V71z M18.9,69c0,0.4,0.1,0.6,0.2,0.9
			c0.2,0.2,0.4,0.3,0.6,0.3c0.3,0,0.5-0.1,0.7-0.3c0.2-0.2,0.2-0.5,0.2-0.8c0-0.4-0.1-0.8-0.2-1c-0.2-0.2-0.4-0.3-0.7-0.3
			c-0.3,0-0.5,0.1-0.7,0.3C19,68.3,18.9,68.7,18.9,69L18.9,69z"/>
		<polygon id="Fill-186" class="st3" points="29.3,65.6 29.3,71 28.1,71 28.1,68.6 26,68.6 26,71 24.9,71 24.9,65.6 26,65.6 
			26,67.6 28.1,67.6 28.1,65.6 		"/>
		<path id="Fill-187" class="st3" d="M34.2,69c0,0.7-0.2,1.2-0.6,1.6c-0.4,0.4-0.9,0.6-1.5,0.6c-0.6,0-1.1-0.2-1.5-0.6
			c-0.4-0.4-0.6-0.9-0.6-1.6c0-0.7,0.2-1.2,0.6-1.6c0.4-0.4,0.9-0.6,1.5-0.6c0.6,0,1.1,0.2,1.5,0.6C34,67.8,34.2,68.4,34.2,69
			 M33.1,69c0-0.4-0.1-0.7-0.2-0.9c-0.2-0.2-0.4-0.3-0.7-0.3c-0.3,0-0.5,0.1-0.7,0.3c-0.2,0.2-0.3,0.5-0.3,0.9
			c0,0.4,0.1,0.7,0.2,0.9c0.2,0.2,0.4,0.3,0.7,0.3c0.3,0,0.6-0.1,0.7-0.3C33,69.7,33.1,69.4,33.1,69"/>
		<path id="Fill-188" class="st3" d="M38.6,71h-1v-0.6h0c-0.3,0.5-0.7,0.7-1.2,0.7c-0.4,0-0.8-0.1-1-0.4c-0.2-0.3-0.4-0.6-0.4-1.1
			V67H36v2.5c0,0.3,0.1,0.4,0.2,0.6c0.1,0.1,0.3,0.2,0.5,0.2c0.2,0,0.4-0.1,0.6-0.2c0.2-0.2,0.2-0.4,0.2-0.7V67h1.1V71z"/>
		<path id="Fill-189" class="st3" d="M41.9,68.2c0-0.2-0.1-0.3-0.2-0.4c-0.1-0.1-0.3-0.1-0.5-0.1c-0.2,0-0.4,0-0.5,0.1
			c-0.1,0.1-0.2,0.2-0.2,0.3c0,0.1,0,0.2,0.1,0.2c0.1,0.1,0.4,0.2,1,0.3c0.6,0.1,1,0.3,1.1,0.5c0.2,0.2,0.2,0.4,0.2,0.7
			c0,0.4-0.2,0.8-0.5,1c-0.3,0.2-0.8,0.4-1.4,0.4c-0.6,0-1-0.1-1.3-0.3c-0.3-0.2-0.5-0.6-0.5-1.1h1.1c0,0.2,0.1,0.4,0.2,0.5
			c0.1,0.1,0.3,0.2,0.6,0.2c0.2,0,0.4,0,0.5-0.1c0.1-0.1,0.2-0.2,0.2-0.3c0-0.1,0-0.2-0.1-0.3c-0.1-0.1-0.4-0.2-0.9-0.3
			c-0.6-0.1-1-0.3-1.2-0.5c-0.2-0.2-0.3-0.4-0.3-0.7c0-0.4,0.1-0.7,0.4-1c0.3-0.3,0.7-0.4,1.3-0.4c0.5,0,1,0.1,1.3,0.3
			c0.3,0.2,0.5,0.6,0.5,1H41.9z"/>
		<path id="Fill-190" class="st3" d="M47.4,69.8c-0.1,0.4-0.3,0.7-0.7,1c-0.3,0.2-0.7,0.3-1.1,0.3c-0.7,0-1.2-0.2-1.5-0.6
			c-0.4-0.4-0.5-0.9-0.5-1.5c0-0.6,0.2-1.2,0.5-1.6c0.3-0.4,0.8-0.6,1.5-0.6c0.6,0,1.1,0.2,1.4,0.6c0.3,0.4,0.5,0.9,0.5,1.7v0.2
			h-2.8c0,0.3,0.1,0.6,0.3,0.7c0.2,0.2,0.4,0.2,0.7,0.2c0.2,0,0.3,0,0.4-0.1c0.1-0.1,0.2-0.2,0.2-0.3H47.4z M46.4,68.6
			c0-0.3-0.1-0.5-0.3-0.6c-0.1-0.2-0.3-0.2-0.6-0.2c-0.5,0-0.8,0.3-0.9,0.8H46.4z"/>
		<polygon id="Fill-191" class="st3" points="51.4,71 50.3,71 50.3,65.6 54.2,65.6 54.2,66.5 51.4,66.5 51.4,67.8 53.8,67.8 
			53.8,68.7 51.4,68.7 		"/>
		<path id="Fill-192" class="st3" d="M58.5,69c0,0.7-0.2,1.2-0.6,1.6c-0.4,0.4-0.9,0.6-1.5,0.6c-0.6,0-1.1-0.2-1.5-0.6
			c-0.4-0.4-0.6-0.9-0.6-1.6c0-0.7,0.2-1.2,0.6-1.6c0.4-0.4,0.9-0.6,1.5-0.6c0.6,0,1.1,0.2,1.5,0.6C58.3,67.8,58.5,68.4,58.5,69
			 M57.4,69c0-0.4-0.1-0.7-0.2-0.9c-0.2-0.2-0.4-0.3-0.7-0.3c-0.3,0-0.5,0.1-0.7,0.3c-0.2,0.2-0.3,0.5-0.3,0.9
			c0,0.4,0.1,0.7,0.2,0.9c0.2,0.2,0.4,0.3,0.7,0.3c0.3,0,0.6-0.1,0.7-0.3C57.3,69.7,57.4,69.4,57.4,69"/>
		<path id="Fill-193" class="st3" d="M59.3,67h1v0.7h0c0.1-0.3,0.3-0.5,0.4-0.6c0.2-0.1,0.4-0.2,0.7-0.2c0.1,0,0.1,0,0.2,0V68
			c0,0-0.1,0-0.3,0c-0.3,0-0.6,0.1-0.7,0.2c-0.2,0.2-0.2,0.4-0.2,0.7V71h-1.1V67z"/>
		<polygon id="Fill-194" class="st3" points="64.3,71 65.5,71 65.5,65.6 64.3,65.6 		"/>
		<path id="Fill-195" class="st3" d="M68.8,68.2c0-0.2-0.1-0.3-0.2-0.4c-0.1-0.1-0.3-0.1-0.5-0.1c-0.2,0-0.4,0-0.5,0.1
			c-0.1,0.1-0.2,0.2-0.2,0.3c0,0.1,0,0.2,0.1,0.2c0.1,0.1,0.4,0.2,1,0.3c0.6,0.1,1,0.3,1.1,0.5c0.2,0.2,0.2,0.4,0.2,0.7
			c0,0.4-0.2,0.8-0.5,1c-0.3,0.2-0.8,0.4-1.4,0.4c-0.6,0-1-0.1-1.3-0.3c-0.3-0.2-0.5-0.6-0.5-1.1h1.1c0,0.2,0.1,0.4,0.2,0.5
			c0.1,0.1,0.3,0.2,0.6,0.2c0.2,0,0.4,0,0.5-0.1c0.1-0.1,0.2-0.2,0.2-0.3c0-0.1,0-0.2-0.1-0.3c-0.1-0.1-0.4-0.2-0.9-0.3
			c-0.6-0.1-1-0.3-1.2-0.5c-0.2-0.2-0.3-0.4-0.3-0.7c0-0.4,0.1-0.7,0.4-1c0.3-0.3,0.7-0.4,1.3-0.4c0.5,0,1,0.1,1.3,0.3
			c0.3,0.2,0.5,0.6,0.5,1H68.8z"/>
		<polygon id="Fill-196" class="st3" points="70.8,71 71.8,71 71.8,65.6 70.8,65.6 		"/>
		<path id="Fill-197" class="st3" d="M76.2,70.2c0,0.2,0,0.3,0.1,0.4c0,0.1,0.1,0.2,0.2,0.2V71h-1.1c0-0.1-0.1-0.3-0.1-0.5
			c-0.3,0.4-0.8,0.6-1.3,0.6c-0.4,0-0.7-0.1-0.9-0.3c-0.2-0.2-0.4-0.5-0.4-0.9c0-0.3,0.1-0.6,0.3-0.9c0.2-0.2,0.5-0.4,0.9-0.4l1-0.1
			c0.1,0,0.2-0.1,0.3-0.1c0.1-0.1,0.1-0.1,0.1-0.2c0-0.2-0.1-0.3-0.2-0.4c-0.1-0.1-0.3-0.1-0.5-0.1c-0.2,0-0.4,0-0.5,0.1
			c-0.1,0.1-0.2,0.2-0.2,0.4h-1c0.1-0.5,0.2-0.8,0.5-1.1c0.3-0.2,0.7-0.3,1.4-0.3c0.5,0,0.9,0.1,1.2,0.3c0.3,0.2,0.4,0.5,0.4,0.9
			V70.2z M75.2,69.1c-0.1,0.1-0.4,0.2-0.8,0.2c-0.3,0-0.5,0.1-0.6,0.2c-0.1,0.1-0.1,0.2-0.1,0.4c0,0.2,0.1,0.3,0.2,0.4
			c0.1,0.1,0.2,0.1,0.4,0.1c0.3,0,0.5-0.1,0.7-0.2c0.2-0.2,0.3-0.3,0.3-0.6V69.1z"/>
		<path id="Fill-198" class="st3" d="M83,71h-1.1v-2.5c0-0.2,0-0.4-0.1-0.6c-0.1-0.1-0.2-0.2-0.5-0.2c-0.2,0-0.4,0.1-0.5,0.2
			c-0.1,0.1-0.2,0.3-0.2,0.6V71h-1.1v-2.5c0-0.3-0.1-0.4-0.2-0.6c-0.1-0.1-0.3-0.2-0.5-0.2c-0.2,0-0.4,0.1-0.5,0.2
			c-0.1,0.1-0.2,0.3-0.2,0.6V71h-1.1v-4h1v0.6h0c0.2-0.5,0.6-0.7,1.2-0.7c0.5,0,0.9,0.2,1.1,0.6c0.3-0.4,0.6-0.6,1.1-0.6
			c0.4,0,0.8,0.1,1,0.4c0.3,0.2,0.4,0.6,0.4,1V71z"/>
		<path id="Fill-199" class="st3" d="M85,66.5H84v-1H85V66.5z M85,71H84v-4H85V71z"/>
		<path id="Fill-200" class="st3" d="M89.5,69.6c-0.1,0.5-0.2,0.9-0.6,1.1c-0.3,0.3-0.7,0.4-1.3,0.4c-0.6,0-1.1-0.2-1.4-0.5
			c-0.3-0.4-0.5-0.8-0.5-1.5c0-0.7,0.2-1.3,0.5-1.7c0.3-0.4,0.8-0.6,1.4-0.6c0.5,0,0.9,0.1,1.2,0.4c0.3,0.3,0.5,0.6,0.6,1.2h-1.1
			c0-0.2-0.1-0.4-0.2-0.5c-0.1-0.1-0.3-0.2-0.5-0.2c-0.3,0-0.5,0.1-0.6,0.3c-0.1,0.2-0.2,0.5-0.2,0.8c0,0.5,0.1,0.8,0.2,1
			c0.1,0.2,0.3,0.3,0.6,0.3c0.2,0,0.4-0.1,0.5-0.2c0.1-0.1,0.2-0.3,0.2-0.5H89.5z"/>
		<path id="Fill-201" class="st3" d="M95.9,67.4c-0.1-0.6-0.5-0.9-1.2-0.9c-0.4,0-0.7,0.2-1,0.5c-0.2,0.3-0.4,0.8-0.4,1.4
			c0,0.6,0.1,1,0.4,1.3c0.2,0.3,0.6,0.5,1,0.5c0.7,0,1.1-0.3,1.2-1H97c-0.1,0.6-0.3,1-0.7,1.4c-0.4,0.4-1,0.6-1.6,0.6
			c-0.8,0-1.4-0.3-1.8-0.8c-0.4-0.5-0.7-1.2-0.7-2.1c0-0.9,0.2-1.6,0.7-2.1c0.4-0.5,1.1-0.8,1.8-0.8c0.7,0,1.2,0.2,1.6,0.5
			c0.4,0.4,0.7,0.8,0.7,1.4H95.9z"/>
		<path id="Fill-202" class="st3" d="M101.4,71h-1v-0.6h0c-0.3,0.5-0.7,0.7-1.2,0.7c-0.4,0-0.8-0.1-1-0.4c-0.2-0.3-0.4-0.6-0.4-1.1
			V67h1.1v2.5c0,0.3,0.1,0.4,0.2,0.6c0.1,0.1,0.3,0.2,0.5,0.2c0.2,0,0.4-0.1,0.6-0.2c0.2-0.2,0.2-0.4,0.2-0.7V67h1.1V71z"/>
		<polygon id="Fill-203" class="st3" points="102.5,71 103.5,71 103.5,65.6 102.5,65.6 		"/>
		<path id="Fill-204" class="st3" d="M105.8,67h0.7v0.8h-0.7V70c0,0.1,0,0.2,0.1,0.2c0.1,0,0.1,0,0.3,0c0.1,0,0.2,0,0.3,0V71
			c-0.2,0-0.3,0-0.6,0c-0.4,0-0.7-0.1-0.9-0.2c-0.2-0.1-0.3-0.4-0.3-0.7v-2.4h-0.5V67h0.5v-1.1h1.1V67z"/>
		<path id="Fill-205" class="st3" d="M110.7,71h-1v-0.6h0c-0.3,0.5-0.7,0.7-1.2,0.7c-0.4,0-0.8-0.1-1-0.4c-0.2-0.3-0.4-0.6-0.4-1.1
			V67h1.1v2.5c0,0.3,0.1,0.4,0.2,0.6c0.1,0.1,0.3,0.2,0.5,0.2c0.2,0,0.4-0.1,0.6-0.2c0.2-0.2,0.2-0.4,0.2-0.7V67h1.1V71z"/>
		<path id="Fill-206" class="st3" d="M111.8,67h1v0.7h0c0.1-0.3,0.3-0.5,0.4-0.6c0.2-0.1,0.4-0.2,0.7-0.2c0.1,0,0.1,0,0.2,0V68
			c0,0-0.1,0-0.3,0c-0.3,0-0.6,0.1-0.7,0.2c-0.2,0.2-0.2,0.4-0.2,0.7V71h-1.1V67z"/>
		<path id="Fill-207" class="st3" d="M118.3,69.8c-0.1,0.4-0.3,0.7-0.7,1c-0.3,0.2-0.7,0.3-1.1,0.3c-0.7,0-1.2-0.2-1.5-0.6
			c-0.4-0.4-0.5-0.9-0.5-1.5c0-0.6,0.2-1.2,0.5-1.6c0.3-0.4,0.8-0.6,1.5-0.6c0.6,0,1.1,0.2,1.4,0.6c0.3,0.4,0.5,0.9,0.5,1.7v0.2
			h-2.8c0,0.3,0.1,0.6,0.3,0.7c0.2,0.2,0.4,0.2,0.7,0.2c0.2,0,0.3,0,0.4-0.1c0.1-0.1,0.2-0.2,0.2-0.3H118.3z M117.2,68.6
			c0-0.3-0.1-0.5-0.3-0.6c-0.1-0.2-0.3-0.2-0.6-0.2c-0.5,0-0.8,0.3-0.9,0.8H117.2z"/>
	</g>
</g>
</svg>
